<?xml version="1.0" encoding="UTF-8" standalone="no"?>
<!-- Created with Inkscape (http://www.inkscape.org/) -->

<svg
   xmlns:dc="http://purl.org/dc/elements/1.1/"
   xmlns:cc="http://creativecommons.org/ns#"
   xmlns:rdf="http://www.w3.org/1999/02/22-rdf-syntax-ns#"
   xmlns:svg="http://www.w3.org/2000/svg"
   xmlns="http://www.w3.org/2000/svg"
   xmlns:sodipodi="http://sodipodi.sourceforge.net/DTD/sodipodi-0.dtd"
   xmlns:inkscape="http://www.inkscape.org/namespaces/inkscape"
   version="1.0"
   width="256"
   height="256"
   id="svg2"
   inkscape:version="0.48.1 r9760"
   sodipodi:docname="completion_0.svg"
   inkscape:export-filename="/home/matt/dev/p2pbackup/SharpBackupWeb/images/completion_100.png"
   inkscape:export-xdpi="10.253906"
   inkscape:export-ydpi="10.253906">
  <metadata
     id="metadata3065">
    <rdf:RDF>
      <cc:Work
         rdf:about="">
        <dc:format>image/svg+xml</dc:format>
        <dc:type
           rdf:resource="http://purl.org/dc/dcmitype/StillImage" />
        <dc:title></dc:title>
      </cc:Work>
    </rdf:RDF>
  </metadata>
  <sodipodi:namedview
     pagecolor="#ffffff"
     bordercolor="#666666"
     borderopacity="1"
     objecttolerance="10"
     gridtolerance="10"
     guidetolerance="10"
     inkscape:pageopacity="0"
     inkscape:pageshadow="2"
     inkscape:window-width="1366"
     inkscape:window-height="728"
     id="namedview3063"
     showgrid="false"
     inkscape:zoom="1.1796875"
     inkscape:cx="-20.344371"
     inkscape:cy="128"
     inkscape:window-x="-7"
     inkscape:window-y="-12"
     inkscape:window-maximized="1"
     inkscape:current-layer="svg2" />
  <defs
     id="defs4">
    <filter
       id="filter3025"
       inkscape:label="Glow"
       inkscape:menu="Shadows and Glows"
       inkscape:menu-tooltip="Glow of object's own color at the edges"
       color-interpolation-filters="sRGB">
      <feGaussianBlur
         id="feGaussianBlur3027"
         stdDeviation="5"
         result="result91" />
      <feComposite
         id="feComposite3029"
         in2="result91"
         in="SourceGraphic"
         operator="over" />
    </filter>
  </defs>
  <g
     id="layer1"
     style="fill:#b3b3b3;filter:url(#filter3025)"
     inkscape:export-filename="/home/matt/dev/p2pbackup/SharpBackupWeb/images/compe_w_90.png"
     inkscape:export-xdpi="10.253906"
     inkscape:export-ydpi="10.253906">
    <path
       d="M 192,128 A 64,64 0 1 1 64,128 A 64,64 0 1 1 192,128 z"
       transform="matrix(2,0,0,2,-128,-128)"
       id="path2380"
       style="opacity:1;fill:#b3b3b3;fill-opacity:1;stroke:none;stroke-width:1;stroke-miterlimit:4;stroke-dasharray:none;stroke-opacity:1" />
  </g>
  <g
     id="layer2">
    <path
       d="M 240,128 A 112,112 0 1 1 16,128 A 112,112 0 1 1 240,128 z"
       id="path2407"
       style="opacity:1;fill:#ffffff;fill-opacity:1;stroke:none;stroke-width:1;stroke-miterlimit:4;stroke-dasharray:none;stroke-opacity:1" />
  </g>
  <g
     id="layer3"
     style="fill:#e6e6e6">
    <path
       d="M 224,128 A 96,96 0 1 1 32,128 A 96,96 0 1 1 224,128 z"
       id="path2410"
       style="opacity:1;fill:#e6e6e6;fill-opacity:1;stroke:none;stroke-width:1;stroke-miterlimit:4;stroke-dasharray:none;stroke-opacity:1" />
  </g>
  <g
     id="layer4">
    <path
       d="M 208,128 A 80,80 0 1 1 48,128 A 80,80 0 1 1 208,128 z"
       id="path3191"
       style="opacity:1;fill:#ffffff;fill-opacity:1;stroke:none;stroke-width:1;stroke-miterlimit:4;stroke-dasharray:none;stroke-opacity:1" />
  </g>
  <g
     id="layer5"
     style="fill:#e6e6e6">
    <path
       d="M 192,128 A 64,64 0 1 1 64,128 A 64,64 0 1 1 192,128 z"
       id="path3194"
       style="opacity:1;fill:#e6e6e6;fill-opacity:1;stroke:none;stroke-width:1;stroke-miterlimit:4;stroke-dasharray:none;stroke-opacity:1" />
  </g>
  <g
     id="layer6"
     style="fill:#ffffff">
    <path
       d="M 176,128 A 48,48 0 1 1 80,128 A 48,48 0 1 1 176,128 z"
       id="path3199"
       style="opacity:1;fill:#ffffff;fill-opacity:1;stroke:none;stroke-width:1;stroke-miterlimit:4;stroke-dasharray:none;stroke-opacity:1" />
  </g>
  <g
     id="layer7"
     style="fill:#e6e6e6">
    <path
       d="M 160,128 A 32,32 0 1 1 96,128 A 32,32 0 1 1 160,128 z"
       id="path3204"
       style="opacity:1;fill:#e6e6e6;fill-opacity:1;stroke:none;stroke-width:1;stroke-miterlimit:4;stroke-dasharray:none;stroke-opacity:1" />
  </g>
  <g
     id="layer8"
     style="fill:#ffffff">
    <path
       d="M 144,128 A 16,16 0 1 1 112,128 A 16,16 0 1 1 144,128 z"
       id="path3209"
       style="opacity:1;fill:#ffffff;fill-opacity:1;stroke:none;stroke-width:1;stroke-miterlimit:4;stroke-dasharray:none;stroke-opacity:1" />
  </g>
</svg>
